HIERARCHY
ROOT joint_Root
{
	OFFSET 0.0 0.0 0.0
	CHANNELS 6 Xposition Yposition Zposition Zrotation Xrotation Yrotation 
	JOINT Hips
	{
		OFFSET -17.1583 93.1646 452.98
		CHANNELS 6 Xposition Yposition Zposition Zrotation Xrotation Yrotation 
		JOINT Spine
		{
			OFFSET 15.7357 0.0 0.0
			CHANNELS 6 Xposition Yposition Zposition Zrotation Xrotation Yrotation 
			JOINT Chest
			{
				OFFSET 8.98455 -0.406207 0.0
				CHANNELS 6 Xposition Yposition Zposition Zrotation Xrotation Yrotation 
				JOINT Neck
				{
					OFFSET 16.3773 0.0 0.0
					CHANNELS 6 Xposition Yposition Zposition Zrotation Xrotation Yrotation 
					JOINT Head
					{
						OFFSET 6.45672 0.0 0.0
						CHANNELS 6 Xposition Yposition Zposition Zrotation Xrotation Yrotation 
						End Site
						{
							OFFSET 0.0 0.0 0.0
						}
					}
				}
				JOINT Shoulder_L
				{
					OFFSET 12.9942 -0.242716 4.98039
					CHANNELS 6 Xposition Yposition Zposition Zrotation Xrotation Yrotation 
					JOINT UpperArm_L
					{
						OFFSET 5.34809 0.0 0.0
						CHANNELS 6 Xposition Yposition Zposition Zrotation Xrotation Yrotation 
						JOINT LowerArm_L
						{
							OFFSET 24.3286 1.87007e-05 0.0
							CHANNELS 6 Xposition Yposition Zposition Zrotation Xrotation Yrotation 
							JOINT Hand_L
							{
								OFFSET 22.2916 0.0 0.0
								CHANNELS 6 Xposition Yposition Zposition Zrotation Xrotation Yrotation 
								End Site
								{
									OFFSET 0.0 0.0 0.0
								}
							}
						}
					}
				}
				JOINT Shoulder_R
				{
					OFFSET 12.9945 -0.242716 -4.98039
					CHANNELS 6 Xposition Yposition Zposition Zrotation Xrotation Yrotation 
					JOINT UpperArm_R
					{
						OFFSET -5.34813 0.0 0.0
						CHANNELS 6 Xposition Yposition Zposition Zrotation Xrotation Yrotation 
						JOINT LowerArm_R
						{
							OFFSET -24.3289 0.000322201 0.0
							CHANNELS 6 Xposition Yposition Zposition Zrotation Xrotation Yrotation 
							JOINT Hand_R
							{
								OFFSET -22.2915 -0.000108084 0.0
								CHANNELS 6 Xposition Yposition Zposition Zrotation Xrotation Yrotation 
								End Site
								{
									OFFSET 0.0 0.0 0.0
								}
							}
						}
					}
				}
			}
		}
		JOINT UpperLeg_L
		{
			OFFSET -2.19248 -6.46944 0.0
			CHANNELS 6 Xposition Yposition Zposition Zrotation Xrotation Yrotation 
			JOINT LowerLeg_L
			{
				OFFSET 39.0811 0.0 -1.23785e-05
				CHANNELS 6 Xposition Yposition Zposition Zrotation Xrotation Yrotation 
				JOINT Foot_L
				{
					OFFSET 40.9854 0.0 -1.26872e-05
					CHANNELS 6 Xposition Yposition Zposition Zrotation Xrotation Yrotation 
					JOINT Toes_L
					{
						OFFSET 11.7543 0.0 0.0
						CHANNELS 6 Xposition Yposition Zposition Zrotation Xrotation Yrotation 
						End Site
						{
							OFFSET 0.0 0.0 0.0
						}
					}
				}
			}
		}
		JOINT UpperLeg_R
		{
			OFFSET -2.19251 6.46944 0.0
			CHANNELS 6 Xposition Yposition Zposition Zrotation Xrotation Yrotation 
			JOINT LowerLeg_R
			{
				OFFSET -39.0811 -0.00228153 -0.0401928
				CHANNELS 6 Xposition Yposition Zposition Zrotation Xrotation Yrotation 
				JOINT Foot_R
				{
					OFFSET -40.9854 0.0 0.0
					CHANNELS 6 Xposition Yposition Zposition Zrotation Xrotation Yrotation 
					JOINT Toes_R
					{
						OFFSET -11.7543 0.0 0.0
						CHANNELS 6 Xposition Yposition Zposition Zrotation Xrotation Yrotation 
						End Site
						{
							OFFSET 0.0 0.0 0.0
						}
					}
				}
			}
		}
	}
}
MOTION
Frames:	7
Frame Time:	0.0333333
0.000000 0.000000 0.000000 0.000000 0.000000 -0.000000 -2.661870 93.565500 0.326020 88.064700 5.628470 -3.528160 15.735700 0.000005 -0.000001 68.158200 86.859800 -73.329900 8.984550 -0.406207 -0.000000 -2.001390 -1.895940 -10.375200 16.377300 -0.000001 -0.000001 -1.934180 -2.677010 -6.918140 6.456720 -0.000001 -0.000000 -6.358640 -0.654089 -13.634600 12.994200 -0.242716 4.980390 -92.010000 6.174940 -71.929800 5.348090 -0.000007 -0.000001 -61.432800 -3.868340 2.797590 24.328600 0.000019 0.000005 14.310400 22.401600 -33.796600 22.291600 -0.000001 0.000005 4.360390 4.940090 8.568220 12.994500 -0.242716 -4.980390 93.941200 -7.673210 -62.707100 -5.348130 -0.000001 -0.000004 -19.244900 -70.512500 -41.513500 -24.328900 0.000322 -0.000009 2.060100 3.794440 -28.529200 -22.291500 -0.000108 -0.000004 50.471400 5.590240 -10.761900 -2.192480 -6.469440 -0.000000 -171.135000 -3.876910 -2.663890 39.081100 -0.000007 -0.000012 -0.024575 0.179184 7.809290 40.985400 -0.000006 -0.000013 -8.424000 17.327500 -62.930900 11.754300 -0.000000 0.000003 -0.000842 0.180762 -9.244370 -2.192510 6.469440 -0.000001 178.916000 10.245000 -179.956000 -39.081100 -0.002282 -0.040193 0.005923 -0.022409 6.564480 -40.985400 0.000008 0.000006 -8.979380 4.504550 -64.431300 -11.754300 -0.000006 -0.000006 -0.009544 0.267866 -5.691640
0.000000 0.000000 0.000000 0.000000 0.000000 -0.000000 -2.649570 93.562100 0.453002 88.104900 6.020860 -3.613690 15.735700 0.000005 -0.000001 69.059200 86.861700 -74.389400 8.984550 -0.406207 -0.000000 -1.965170 -1.790950 -10.689400 16.377300 -0.000001 -0.000001 -1.630110 -2.323970 -7.521650 6.456720 -0.000001 -0.000000 -6.180240 -0.373785 -13.684800 12.994200 -0.242716 4.980390 -92.049400 6.222940 -71.730800 5.348090 -0.000007 -0.000001 -61.206900 -4.426680 2.819170 24.328600 0.000019 0.000005 14.175600 22.738600 -33.163500 22.291600 -0.000001 0.000005 4.568730 4.929330 8.787500 12.994500 -0.242716 -4.980390 93.865700 -7.561630 -62.819600 -5.348130 -0.000001 -0.000004 -18.489400 -68.812100 -38.698600 -24.328900 0.000322 -0.000009 -1.640360 -4.484970 -20.107300 -22.291500 -0.000108 -0.000004 44.333900 5.479380 -5.718440 -2.192480 -6.469440 -0.000000 -171.137000 -3.728830 -2.654440 39.081100 -0.000007 -0.000012 -0.023891 0.178267 7.632870 40.985400 -0.000006 -0.000013 -8.554120 17.596800 -62.830300 11.754300 -0.000000 0.000003 -0.000822 0.180468 -9.256330 -2.192510 6.469440 -0.000001 178.894000 10.603500 -179.893000 -39.081100 -0.002282 -0.040193 0.005797 -0.021434 6.528330 -40.985400 0.000008 0.000006 -9.060140 4.425270 -64.520800 -11.754300 -0.000006 -0.000006 -0.009958 0.270990 -5.563880
0.000000 0.000000 0.000000 0.000000 0.000000 -0.000000 -2.645920 93.528100 0.618988 88.087200 6.409630 -3.618500 15.735700 0.000005 -0.000001 70.866600 86.842600 -76.344900 8.984550 -0.406207 -0.000000 -1.853690 -1.610300 -10.980700 16.377300 -0.000001 -0.000001 -1.314630 -2.025940 -8.065410 6.456720 -0.000001 -0.000000 -5.921590 -0.221540 -13.642400 12.994200 -0.242716 4.980390 -92.075600 6.268230 -71.637300 5.348090 -0.000007 -0.000001 -60.882600 -5.027540 2.872710 24.328600 0.000019 0.000005 13.884700 23.071800 -32.242700 22.291600 -0.000001 0.000005 4.632370 4.920880 8.958780 12.994500 -0.242716 -4.980390 93.898000 -7.597260 -62.734100 -5.348130 -0.000001 -0.000004 -20.890800 -67.796400 -37.656300 -24.328900 0.000322 -0.000009 -3.024380 -13.295800 -12.935600 -22.291500 -0.000108 -0.000004 40.292100 5.348180 -1.322010 -2.192480 -6.469440 -0.000000 -171.115000 -3.483170 -2.874820 39.081100 -0.000007 -0.000012 -0.025668 0.179810 8.123910 40.985400 -0.000006 -0.000013 -8.170040 17.700400 -63.296400 11.754300 -0.000000 0.000003 -0.000833 0.180640 -9.249330 -2.192510 6.469440 -0.000001 178.932000 10.892900 -179.793000 -39.081100 -0.002282 -0.040193 0.005271 -0.016599 6.619540 -40.985400 0.000008 0.000006 -8.979310 4.380590 -64.692500 -11.754300 -0.000006 -0.000006 -0.009762 0.269520 -5.623990
0.000000 0.000000 0.000000 0.000000 0.000000 -0.000000 -2.637680 93.496800 0.809668 88.134700 6.758360 -3.548410 15.735700 0.000005 -0.000001 72.369900 86.823900 -78.020400 8.984550 -0.406207 -0.000000 -1.758970 -1.454740 -11.320800 16.377300 -0.000001 -0.000001 -0.857084 -1.652210 -8.603270 6.456720 -0.000001 -0.000000 -5.617340 0.030627 -13.448200 12.994200 -0.242716 4.980390 -92.126100 6.355600 -71.460800 5.348090 -0.000007 -0.000001 -60.365300 -5.403600 3.077940 24.328600 0.000019 0.000005 13.484100 23.340900 -31.182800 22.291600 -0.000001 0.000005 4.673210 4.909790 9.181930 12.994500 -0.242716 -4.980390 94.033800 -7.772570 -62.460500 -5.348130 -0.000001 -0.000004 -24.636400 -66.662600 -37.115900 -24.328900 0.000322 -0.000009 -2.218850 -22.471600 -5.785960 -22.291500 -0.000108 -0.000004 38.337200 5.255250 1.293780 -2.192480 -6.469440 -0.000000 -171.142000 -3.109470 -2.830000 39.081100 -0.000007 -0.000012 -0.026519 0.181307 8.321270 40.985400 -0.000006 -0.000013 -7.938070 17.703700 -63.633000 11.754300 -0.000000 0.000003 -0.000927 0.181991 -9.194440 -2.192510 6.469440 -0.000001 178.861000 11.209100 -179.554000 -39.081100 -0.002282 -0.040193 0.004652 -0.011193 6.664460 -40.985400 0.000008 0.000006 -8.978010 4.395430 -64.870600 -11.754300 -0.000006 -0.000006 -0.009617 0.268420 -5.668980
0.000000 0.000000 0.000000 0.000000 0.000000 -0.000000 -2.658680 93.453100 0.996636 88.105700 7.132150 -3.533090 15.735700 0.000005 -0.000001 73.118300 86.825300 -78.890400 8.984550 -0.406207 -0.000000 -1.732920 -1.366010 -11.562200 16.377300 -0.000001 -0.000001 -0.425381 -1.291220 -8.962620 6.456720 -0.000001 -0.000000 -5.143130 0.324704 -13.426600 12.994200 -0.242716 4.980390 -92.165800 6.422130 -71.318900 5.348090 -0.000007 -0.000001 -59.856300 -5.823780 3.416450 24.328600 0.000019 0.000005 13.183800 23.799500 -30.134700 22.291600 -0.000001 0.000005 4.591160 4.899030 9.397120 12.994500 -0.242716 -4.980390 94.445200 -8.406720 -61.998700 -5.348130 -0.000001 -0.000004 -29.704000 -65.496700 -36.885400 -24.328900 0.000322 -0.000009 -0.001067 -29.442000 -0.000169 -22.291500 -0.000108 -0.000004 37.441200 5.140970 4.158390 -2.192480 -6.469440 -0.000000 -171.092000 -2.621410 -3.026520 39.081100 -0.000007 -0.000012 -0.028640 0.183973 8.848420 40.985400 -0.000006 -0.000013 -7.596630 17.577900 -64.157000 11.754300 -0.000000 0.000003 -0.000859 0.181012 -9.234210 -2.192510 6.469440 -0.000001 178.911000 11.562600 -179.418000 -39.081100 -0.002282 -0.040193 0.004048 -0.005939 6.757560 -40.985400 0.000008 0.000006 -8.976360 4.391310 -65.065800 -11.754300 -0.000006 -0.000006 -0.009647 0.268650 -5.659570
0.000000 0.000000 0.000000 0.000000 0.000000 -0.000000 -2.679020 93.429000 1.174360 88.102500 7.526120 -3.551690 15.735700 0.000005 -0.000001 72.935700 86.837800 -78.835700 8.984550 -0.406207 -0.000000 -1.763090 -1.365920 -11.818400 16.377300 -0.000001 -0.000001 0.092348 -0.940376 -9.314360 6.456720 -0.000001 -0.000000 -4.756100 0.697571 -13.273800 12.994200 -0.242716 4.980390 -92.212000 6.504120 -71.170800 5.348090 -0.000007 -0.000001 -59.272000 -6.150490 3.953860 24.328600 0.000019 0.000005 12.778700 23.881200 -29.258600 22.291600 -0.000001 0.000005 4.620490 4.894120 9.494990 12.994500 -0.242716 -4.980390 95.037700 -9.595780 -62.129000 -5.348130 -0.000001 -0.000004 -36.037500 -66.163500 -35.289400 -24.328900 0.000322 -0.000009 -0.001103 -35.679700 -0.000213 -22.291500 -0.000108 -0.000004 38.791400 4.905430 9.268390 -2.192480 -6.469440 -0.000000 -171.041000 -2.132020 -3.069090 39.081100 -0.000007 -0.000012 -0.028951 0.183483 8.966310 40.985400 -0.000006 -0.000013 -7.496360 17.496600 -64.387800 11.754300 -0.000000 0.000003 -0.000917 0.181855 -9.199960 -2.192510 6.469440 -0.000001 178.945000 11.883400 -179.292000 -39.081100 -0.002282 -0.040193 0.003598 -0.002131 6.783710 -40.985400 0.000008 0.000006 -9.015690 4.323810 -65.212700 -11.754300 -0.000006 -0.000006 -0.009847 0.270155 -5.598040
0.000000 0.000000 0.000000 0.000000 0.000000 -0.000000 -2.709510 93.412100 1.334510 88.080500 7.982500 -3.592980 15.735700 0.000005 -0.000001 71.855600 86.848900 -77.813600 8.984550 -0.406207 -0.000000 -1.825570 -1.464580 -11.937000 16.377300 -0.000001 -0.000001 0.558043 -0.495078 -9.993980 6.456720 -0.000001 -0.000000 -4.307410 0.850211 -12.865800 12.994200 -0.242716 4.980390 -92.292200 6.646470 -70.922900 5.348090 -0.000007 -0.000001 -58.760400 -6.301500 4.442530 24.328600 0.000019 0.000005 12.381700 24.041800 -28.318000 22.291600 -0.000001 0.000005 4.537670 4.890540 9.566030 12.994500 -0.242716 -4.980390 95.342400 -10.779300 -63.434700 -5.348130 -0.000001 -0.000004 -42.553000 -71.342600 -31.514500 -24.328900 0.000322 -0.000009 -0.001199 -42.391900 -0.000270 -22.291500 -0.000108 -0.000004 45.012400 4.560010 15.595500 -2.192480 -6.469440 -0.000000 -170.965000 -1.842350 -3.133270 39.081100 -0.000007 -0.000012 -0.028648 0.180255 9.030180 40.985400 -0.000006 -0.000013 -7.401190 17.618100 -64.550300 11.754300 -0.000000 0.000003 -0.000847 0.180835 -9.241420 -2.192510 6.469440 -0.000001 179.004000 12.279100 -179.248000 -39.081100 -0.002282 -0.040193 0.003251 0.000766 6.908080 -40.985400 0.000008 0.000006 -9.018990 4.351020 -65.316700 -11.754300 -0.000006 -0.000006 -0.009344 0.266333 -5.754300
